{"title":"The Acacia Strain - Most Known Unknown DVDRip XviD-BSAA.avi","uid":6339402,"size":419418112,"categoryP":"video","categoryS":"music_videos","magnet":"?xt=urn:btih:097f4f1856ef752c50967700993595c096c03a5a&amp;dn=The+Acacia+Strain+-+Most+Known+Unknown+DVDRip+XviD-BSAA.avi&amp;tr=udp%3A%2F%2Ftracker.openbittorrent.com%3A80&amp;tr=udp%3A%2F%2Fopen.demonii.com%3A1337&amp;tr=udp%3A%2F%2Ftracker.coppersurfer.tk%3A6969&amp;tr=udp%3A%2F%2Fexodus.desync.com%3A6969","seeders":1,"leechers":0,"uploader":"xBSAACHRIS434x","files":1,"time":1303591188,"description":"This is Disc 2 the Documentary\n\n\n\n\nFormat                           : AVI\nFormat/Info                      : Audio Video Interleave\nFile size                        : 400 MiB\nDuration                         : 30mn 22s\nOverall bit rate                 : 1 841 Kbps\nWriting application              : VirtualDubMod 1.5.4.1 (build 2178/release)\nWriting library                  : VirtualDubMod build 2178/release\n\nVideo\nID                               : 0\nFormat                           : MPEG-4 Visual\nFormat profile                   : Advanced Simple@L5\nFormat settings, BVOP            : 1\nFormat settings, QPel            : No\nFormat settings, GMC             : No warppoints\nFormat settings, Matrix          : Custom\nCodec ID                         : XVID\nCodec ID/Hint                    : XviD\nDuration                         : 30mn 22s\nBit rate                         : 1 640 Kbps\nWidth                            : 560 pixels\nHeight                           : 416 pixels\nDisplay aspect ratio             : 4:3\nFrame rate                       : 29.970 fps\nColor space                      : YUV\nChroma subsampling               : 4:2:0\nBit depth                        : 8 bits\nScan type                        : Progressive\nCompression mode                 : Lossy\nBits/(Pixel*Frame)               : 0.235\nStream size                      : 356 MiB (89%)\nWriting library                  : XviD 1.2.1 (UTC 2008-12-04)\n\nAudio\nID                               : 1\nFormat                           : MPEG Audio\nFormat version                   : Version 1\nFormat profile                   : Layer 3\nMode                             : Joint stereo\nCodec ID                         : 55\nCodec ID/Hint                    : MP3\nDuration                         : 30mn 22s\nBit rate mode                    : Constant\nBit rate                         : 192 Kbps\nChannel(s)                       : 2 channels\nSampling rate                    : 48.0 KHz\nCompression mode                 : Lossy\nStream size                      : 41.7 MiB (10%)\nAlignment                        : Aligned on interleaves\nInterleave, duration             : 67 ms (2.00 video frames)\nInterleave, preload duration     : 504 ms\nWriting library                  : LAME3.98r\nEncoding settings                : -m j -V 4 -q 2 -lowpass 18.6 -b 192\nLanguage                         : English\n","torrent":{"xt":"urn:btih:097f4f1856ef752c50967700993595c096c03a5a","amp;dn":"The+Acacia+Strain+-+Most+Known+Unknown+DVDRip+XviD-BSAA.avi","amp;tr":["udp%3A%2F%2Ftracker.openbittorrent.com%3A80","udp%3A%2F%2Fopen.demonii.com%3A1337","udp%3A%2F%2Ftracker.coppersurfer.tk%3A6969","udp%3A%2F%2Fexodus.desync.com%3A6969"],"infoHash":"097f4f1856ef752c50967700993595c096c03a5a","infoHashBuffer":{"type":"Buffer","data":[9,127,79,24,86,239,117,44,80,150,119,0,153,53,149,192,150,192,58,90]},"announce":[],"urlList":[]}}